<?xml version="1.0" encoding="utf-8"?>
<!-- Generator: Adobe Illustrator 15.0.0, SVG Export Plug-In . SVG Version: 6.00 Build 0)  -->
<!DOCTYPE svg PUBLIC "-//W3C//DTD SVG 1.1//EN" "http://www.w3.org/Graphics/SVG/1.1/DTD/svg11.dtd">
<svg version="1.1" id="Layer_1" xmlns="http://www.w3.org/2000/svg" xmlns:xlink="http://www.w3.org/1999/xlink" x="0px" y="0px"
	 width="14px" height="14px" viewBox="0 0 14 14" enable-background="new 0 0 14 14" xml:space="preserve">
<g>
	<g>
		<path fill="#DC4A26" d="M13,0.598c0-0.386-0.307-0.651-0.683-0.588L5.672,1.186C5.296,1.249,5,1.617,5,2.005v7.249
			C4.228,8.862,3.14,8.925,2.157,9.52c-1.393,0.841-2.033,2.413-1.43,3.506c0.603,1.094,2.223,1.299,3.615,0.455
			c1.078-0.65,1.697-1.735,1.648-2.699L6,10.789V3.624c0-0.386,0.277-0.756,0.653-0.818l4.684-0.823C11.712,1.919,12,2.184,12,2.57
			v4.684c-0.771-0.393-1.86-0.329-2.843,0.265C7.764,8.36,7.123,9.931,7.727,11.024c0.603,1.094,2.222,1.3,3.615,0.456
			c1.069-0.646,1.689-1.721,1.649-2.68L13,8.808V0.598z"/>
	</g>
</g>
</svg>
