<?xml version="1.0" encoding="utf-8"?>
<!-- Generator: Adobe Illustrator 15.0.0, SVG Export Plug-In . SVG Version: 6.00 Build 0)  -->
<!DOCTYPE svg PUBLIC "-//W3C//DTD SVG 1.1//EN" "http://www.w3.org/Graphics/SVG/1.1/DTD/svg11.dtd">
<svg version="1.1" id="Layer_1" xmlns="http://www.w3.org/2000/svg" xmlns:xlink="http://www.w3.org/1999/xlink" x="0px" y="0px"
	 width="14px" height="14px" viewBox="0 0 14 14" enable-background="new 0 0 14 14" xml:space="preserve">
<g>
	<path fill="#DC4A26" d="M1.667,5C1.298,5,1,5.298,1,5.667v6.667C1,12.702,1.298,13,1.667,13h10.667C12.702,13,13,12.702,13,12.334
		V5.667C13,5.298,12.702,5,12.334,5H10.5C10.097,3.775,8.947,1,7,1C5.054,1,3.902,3.775,3.5,5H1.667z M4.5,5C4.923,3.757,5.84,2,7,2
		s2.076,1.757,2.5,3H4.5z M4.001,8C3.446,8,3,7.555,3,7c0-0.551,0.446-1,1.001-1C4.554,6,5,6.449,5,7C5,7.555,4.554,8,4.001,8z
		 M10,8.001C9.447,8.001,9,7.554,9,7c0-0.553,0.447-1.001,1-1.001S11,6.447,11,7C11,7.554,10.553,8.001,10,8.001z"/>
</g>
</svg>
