<?xml version="1.0" encoding="utf-8"?>
<!-- Generator: Adobe Illustrator 15.0.0, SVG Export Plug-In . SVG Version: 6.00 Build 0)  -->
<!DOCTYPE svg PUBLIC "-//W3C//DTD SVG 1.1//EN" "http://www.w3.org/Graphics/SVG/1.1/DTD/svg11.dtd">
<svg version="1.1" id="Layer_1" xmlns="http://www.w3.org/2000/svg" xmlns:xlink="http://www.w3.org/1999/xlink" x="0px" y="0px"
	 width="14px" height="14px" viewBox="0 0 14 14" enable-background="new 0 0 14 14" xml:space="preserve">
<g>
	<g>
		<path fill="#DC4A26" d="M12.301,2.5H1.7C1.315,2.5,1,2.813,1,3.196v7.608C1,11.188,1.315,11.5,1.7,11.5h10.601
			c0.385,0,0.699-0.312,0.699-0.696V3.196C13,2.813,12.686,2.5,12.301,2.5z M2.989,10.455H1.994V9.498h0.996V10.455z M2.989,8.49
			H1.994V7.5h0.996V8.49z M2.989,6.494H1.994V5.535h0.996V6.494z M2.989,4.496H1.994V3.538h0.996V4.496z M8.006,7.841
			C7.659,8.126,7.308,8.404,6.954,8.677C6.6,8.947,6.255,9.197,5.92,9.426c-0.335,0.229-0.64,0.422-0.913,0.579V4.026
			c0.261,0.158,0.559,0.35,0.894,0.578c0.335,0.229,0.68,0.476,1.034,0.74c0.354,0.265,0.708,0.54,1.061,0.825
			c0.355,0.286,0.687,0.565,0.998,0.836C8.684,7.276,8.354,7.555,8.006,7.841z M11.992,10.455h-0.996V9.498h0.996V10.455z
			 M11.992,8.49h-0.996V7.5h0.996V8.49z M11.992,6.494h-0.996V5.535h0.996V6.494z M11.992,4.496h-0.996V3.538h0.996V4.496z"/>
	</g>
</g>
</svg>
