<?xml version="1.0" encoding="utf-8"?>
<!-- Generator: Adobe Illustrator 15.0.0, SVG Export Plug-In . SVG Version: 6.00 Build 0)  -->
<!DOCTYPE svg PUBLIC "-//W3C//DTD SVG 1.1//EN" "http://www.w3.org/Graphics/SVG/1.1/DTD/svg11.dtd">
<svg version="1.1" id="Layer_1" xmlns="http://www.w3.org/2000/svg" xmlns:xlink="http://www.w3.org/1999/xlink" x="0px" y="0px"
	 width="14px" height="14px" viewBox="0 0 14 14" enable-background="new 0 0 14 14" xml:space="preserve">
<path fill="#DC4A26" d="M8.5,4.504v7.997c0,0.55-0.469,0.999-1.018,0.999H6.498c-0.55,0-0.998-0.449-0.998-0.999V4.504H8.5z"/>
<g>
	<path fill="#DC4A26" d="M4.5,4.504h-2v-1h2V1.505c0-0.55-0.45-1-1-1H1.501c-0.55,0-1,0.45-1,1L0.5,12.501
		c0,0.55,0.45,0.999,1,0.999h1.999c0.55,0,1-0.449,1-0.999V10.5L2.5,10.502v-1L4.499,9.5V7.503H2.5v-1h2"/>
</g>
<path fill="#DC4A26" d="M4.5,6.503v-1l0,0V6.503L4.5,6.503z"/>
<path fill="#DC4A26" d="M4.5,9.502v-1h0L4.5,9.502L4.5,9.502z"/>
<path fill="#DC4A26" d="M4.5,12.499L4.5,12.499L4.5,12.499L4.5,12.499L4.5,12.499z"/>
<path fill="#DC4A26" d="M11.866,0.508v1.237C12.102,1.856,12.3,2.052,12.3,2.286c0,0.354-0.358,0.64-0.8,0.64s-0.8-0.286-0.8-0.64
	c0-0.234,0.198-0.43,0.433-0.541V0.508C10.66,0.972,9.5,2.321,9.5,2.917c0,0.884,1.116,1.6,2,1.6s2-0.716,2-1.6
	C13.5,2.321,12.34,0.972,11.866,0.508z"/>
<path fill="#DC4A26" d="M5.501,3.499L7.047,0.5L8.5,3.499H5.501z"/>
<path fill="#DC4A26" d="M13.5,5.503v6.998c0,0.55-0.45,0.999-1,0.999h-2c-0.55,0-1-0.449-1-0.999V5.503H13.5z"/>
</svg>
