<?xml version="1.0" encoding="utf-8"?>
<!-- Generator: Adobe Illustrator 14.0.0, SVG Export Plug-In . SVG Version: 6.00 Build 43363)  -->
<!DOCTYPE svg PUBLIC "-//W3C//DTD SVG 1.1//EN" "http://www.w3.org/Graphics/SVG/1.1/DTD/svg11.dtd">
<svg version="1.1" id="Layer_1" xmlns="http://www.w3.org/2000/svg" xmlns:xlink="http://www.w3.org/1999/xlink" x="0px" y="0px"
	 width="24px" height="24px" viewBox="0 0 24 24" enable-background="new 0 0 24 24" xml:space="preserve">
<g>
	<g>
		<path fill="#FFFFFF" d="M9.5,21c0,0.55,0.45,1,1,1h3c0.55,0,1-0.45,1-1V8h-5V21z M6.5,2H3.501c-0.55,0-1,0.45-1,1L2.5,21
			c0,0.55,0.45,1,1,1h2.999c0.55,0,1-0.45,1-1v-2.969H5.5v-1h1.999V14H5.5v-1h2v-3h-2V9h2V6h-2V5h2V3C7.5,2.45,7.05,2,6.5,2z
			 M7.5,10V9V10L7.5,10z M7.5,14v-1h0L7.5,14L7.5,14z M7.5,18.031v-1H7.499L7.5,18.031L7.5,18.031z M19,8.015
			c1.104,0,2.5-1.119,2.5-2.5c0-0.933-1.408-2.79-2-3.515v1.515c0.293,0.174,0.5,0.48,0.5,0.847c0,0.553-0.447,1-1,1s-1-0.447-1-1
			c0-0.366,0.207-0.673,0.5-0.847V2c-0.592,0.725-2,2.582-2,3.515C16.5,6.896,17.896,8.015,19,8.015z M9.438,7H14.5l-2.531-5
			L9.438,7z M16.5,21c0,0.55,0.45,1,1,1h3c0.55,0,1-0.45,1-1V9h-5V21z"/>
	</g>
</g>
</svg>
