<?xml version="1.0" encoding="utf-8"?>
<!-- Generator: Adobe Illustrator 14.0.0, SVG Export Plug-In . SVG Version: 6.00 Build 43363)  -->
<!DOCTYPE svg PUBLIC "-//W3C//DTD SVG 1.1//EN" "http://www.w3.org/Graphics/SVG/1.1/DTD/svg11.dtd">
<svg version="1.1" id="Layer_1" xmlns="http://www.w3.org/2000/svg" xmlns:xlink="http://www.w3.org/1999/xlink" x="0px" y="0px"
	 width="24px" height="24px" viewBox="0 0 24 24" enable-background="new 0 0 24 24" xml:space="preserve">
<g>
	<g>
		<path fill="#FFFFFF" d="M12.009,9.51c-2.218,0-4.016,1.797-4.016,4.013s1.798,4.013,4.016,4.013s4.016-1.797,4.016-4.013
			S14.227,9.51,12.009,9.51z M21,6.511H3c-0.55,0-1,0.45-1,0.999v11.991c0,0.55,0.45,0.999,1,0.999h18c0.55,0,1-0.449,1-0.999V7.51
			C22,6.961,21.55,6.511,21,6.511z M12,19.501c-3.313,0-6-2.684-6-5.995c0-3.312,2.687-5.996,6-5.996s6,2.684,6,5.996
			C18,16.817,15.313,19.501,12,19.501z M15.664,5.55l-0.368-1.102C15.122,3.927,14.53,3.5,13.979,3.5h-4
			c-0.55,0-1.142,0.427-1.316,0.948L8.296,5.55C8.122,6.071,7.53,6.498,6.98,6.498h10C16.431,6.498,15.838,6.071,15.664,5.55z"/>
	</g>
</g>
</svg>
