<?xml version="1.0" encoding="utf-8"?>
<!-- Generator: Adobe Illustrator 15.0.0, SVG Export Plug-In . SVG Version: 6.00 Build 0)  -->
<!DOCTYPE svg PUBLIC "-//W3C//DTD SVG 1.1//EN" "http://www.w3.org/Graphics/SVG/1.1/DTD/svg11.dtd">
<svg version="1.1" id="Layer_1" xmlns="http://www.w3.org/2000/svg" xmlns:xlink="http://www.w3.org/1999/xlink" x="0px" y="0px"
	 width="24px" height="24px" viewBox="0 0 24 24" enable-background="new 0 0 24 24" xml:space="preserve">
<path fill="#FFFFFF" d="M23,11.38c-0.774,0.14-1.897-0.005-2.492-0.267c1.236-0.108,2.073-0.701,2.396-1.505
	c-0.445,0.29-1.829,0.604-2.593,0.304c-0.038-0.189-0.078-0.369-0.121-0.533c-0.581-2.256-2.576-4.074-4.663-3.854
	c0.169-0.073,0.34-0.139,0.512-0.2c0.229-0.087,1.577-0.318,1.365-0.82c-0.179-0.442-1.828,0.332-2.138,0.435
	c0.41-0.162,1.087-0.441,1.159-0.939c-0.627,0.091-1.243,0.404-1.72,0.86c0.173-0.195,0.304-0.432,0.331-0.689
	c-1.675,1.129-2.652,3.405-3.443,5.613c-0.621-0.637-1.173-1.136-1.667-1.416C8.541,7.584,6.883,6.766,4.282,5.746
	c-0.08,0.909,0.426,2.118,1.881,2.92C5.848,8.621,5.271,8.722,4.811,8.838c0.188,1.042,0.801,1.899,2.463,2.312
	c-0.759,0.053-1.153,0.237-1.508,0.629c0.346,0.725,1.191,1.576,2.708,1.401c-1.689,0.769-0.688,2.19,0.686,1.979
	C6.817,17.715,3.122,17.525,1,15.39c5.539,7.969,17.581,4.712,19.374-2.963C21.721,12.438,22.51,11.936,23,11.38z"/>
</svg>
