<?xml version="1.0" encoding="utf-8"?>
<!-- Generator: Adobe Illustrator 14.0.0, SVG Export Plug-In . SVG Version: 6.00 Build 43363)  -->
<!DOCTYPE svg PUBLIC "-//W3C//DTD SVG 1.1//EN" "http://www.w3.org/Graphics/SVG/1.1/DTD/svg11.dtd">
<svg version="1.1" id="Layer_1" xmlns="http://www.w3.org/2000/svg" xmlns:xlink="http://www.w3.org/1999/xlink" x="0px" y="0px"
	 width="24px" height="24px" viewBox="0 0 24 24" enable-background="new 0 0 24 24" xml:space="preserve">
<g>
	<g>
		<path fill="#FFFFFF" d="M21,2.85c0-0.55-0.443-0.927-0.986-0.837L9.986,3.687C9.444,3.776,9,4.301,9,4.851v10.268l0.02,0.026
			c-1.062-0.301-2.393-0.131-3.61,0.578c-2.025,1.178-2.956,3.379-2.079,4.911s3.232,1.819,5.258,0.637
			c1.437-0.835,2.307-2.182,2.389-3.441l0.022,0.03V7.155c0-0.55,0.444-1.075,0.986-1.165l6.028-1.006
			C18.557,4.894,19,5.271,19,5.821v7.296l0.02,0.026c-1.062-0.3-2.393-0.131-3.609,0.578c-2.025,1.179-2.957,3.379-2.079,4.911
			c0.877,1.533,3.231,1.82,5.257,0.638c1.438-0.835,2.308-2.183,2.39-3.442L21,15.859V2.85z"/>
	</g>
</g>
</svg>
