<?xml version="1.0" encoding="utf-8"?>
<!-- Generator: Adobe Illustrator 15.0.0, SVG Export Plug-In . SVG Version: 6.00 Build 0)  -->
<!DOCTYPE svg PUBLIC "-//W3C//DTD SVG 1.1//EN" "http://www.w3.org/Graphics/SVG/1.1/DTD/svg11.dtd">
<svg version="1.1" id="Layer_1" xmlns="http://www.w3.org/2000/svg" xmlns:xlink="http://www.w3.org/1999/xlink" x="0px" y="0px"
	 width="24px" height="24px" viewBox="0 0 24 24" enable-background="new 0 0 24 24" xml:space="preserve">
<path fill="#FFFFFF" d="M19.964,14.964L20,15V3.849c0-0.55-0.444-0.926-0.986-0.835l-8.027,1.67C10.444,4.774,10,5.299,10,5.849
	v9.603c-0.984-0.633-2.52-0.61-3.892,0.172c-1.772,1.009-2.587,2.895-1.819,4.207c0.767,1.312,2.828,1.559,4.6,0.545
	c1.441-0.819,2.232-2.213,2.074-3.412L11,17V6.849c0-0.55,0.444-1.075,0.986-1.167l6.028-1.365C18.557,4.224,19,4.599,19,5.148
	v8.302c-0.984-0.632-2.521-0.609-3.891,0.174c-1.773,1.01-2.588,2.894-1.82,4.206c0.768,1.312,2.828,1.56,4.601,0.546
	C19.331,17.557,20.122,16.163,19.964,14.964z"/>
</svg>
