<?xml version="1.0" encoding="utf-8"?>
<!-- Generator: Adobe Illustrator 15.0.0, SVG Export Plug-In . SVG Version: 6.00 Build 0)  -->
<!DOCTYPE svg PUBLIC "-//W3C//DTD SVG 1.1//EN" "http://www.w3.org/Graphics/SVG/1.1/DTD/svg11.dtd">
<svg version="1.1" id="Layer_1" xmlns="http://www.w3.org/2000/svg" xmlns:xlink="http://www.w3.org/1999/xlink" x="0px" y="0px"
	 width="24px" height="24px" viewBox="0 0 24 24" enable-background="new 0 0 24 24" xml:space="preserve">
<path fill="#FFFFFF" d="M16,13.5c0,2.21-1.79,4-4,4s-4-1.79-4-4s1.79-4,4-4S16,11.29,16,13.5z"/>
<path fill="#FFFFFF" d="M20,7.5h-3c-0.55,0-1.162-0.433-1.336-0.956l-0.368-1.103C15.122,4.92,14.55,4.5,14,4.5h-4
	c-0.55,0-1.162,0.42-1.337,0.942L8.296,6.544C8.122,7.067,7.55,7.5,7,7.5H4c-0.55,0-1,0.45-1,1v10c0,0.551,0.45,1,1,1h16
	c0.55,0,1-0.449,1-1v-10C21,7.95,20.55,7.5,20,7.5z M12,18.5c-2.762,0-5-2.238-5-5c0-2.763,2.238-5,5-5c2.761,0,5,2.237,5,5
	C17,16.262,14.761,18.5,12,18.5z"/>
</svg>
