<?xml version="1.0" encoding="utf-8"?>
<!-- Generator: Adobe Illustrator 14.0.0, SVG Export Plug-In . SVG Version: 6.00 Build 43363)  -->
<!DOCTYPE svg PUBLIC "-//W3C//DTD SVG 1.1//EN" "http://www.w3.org/Graphics/SVG/1.1/DTD/svg11.dtd">
<svg version="1.1" id="Layer_1" xmlns="http://www.w3.org/2000/svg" xmlns:xlink="http://www.w3.org/1999/xlink" x="0px" y="0px"
	 width="24px" height="24px" viewBox="0 0 24 24" enable-background="new 0 0 24 24" xml:space="preserve">
<g>
	<g>
		<path fill="#FFFFFF" d="M21,4H3C2.45,4,2,4.45,2,5v14c0,0.55,0.45,1,1,1h18c0.55,0,1-0.45,1-1V5C22,4.45,21.55,4,21,4z M5,19H3v-2
			h2V19z M5,16H3v-2h2V16z M5,13H3v-2h2V13z M5,10H3V8h2V10z M5,7H3V5h2V7z M9,15.98V8l7.036,4L9,15.98z M21,19h-2v-2h2V19z M21,16
			h-2v-2h2V16z M21,13h-2v-2h2V13z M21,10h-2V8h2V10z M21,7h-2V5h2V7z"/>
	</g>
</g>
</svg>
