<?xml version="1.0" encoding="utf-8"?>
<!-- Generator: Adobe Illustrator 14.0.0, SVG Export Plug-In . SVG Version: 6.00 Build 43363)  -->
<!DOCTYPE svg PUBLIC "-//W3C//DTD SVG 1.1//EN" "http://www.w3.org/Graphics/SVG/1.1/DTD/svg11.dtd">
<svg version="1.1" id="Layer_1" xmlns="http://www.w3.org/2000/svg" xmlns:xlink="http://www.w3.org/1999/xlink" x="0px" y="0px"
	 width="24px" height="24px" viewBox="0 0 24 24" enable-background="new 0 0 24 24" xml:space="preserve">
<g>
	<g>
		<path fill="#FFFFFF" d="M16.25,9.028c-1.511-1.006-3.019-1.971-4.527-2.897C10.213,5.2,8.743,4.335,7.313,3.532
			S4.613,2.051,3.5,1.5v21c1.164-0.552,2.461-1.229,3.892-2.032c1.431-0.803,2.9-1.682,4.409-2.634
			c1.51-0.953,3.004-1.932,4.488-2.937c1.481-1.002,2.887-1.981,4.211-2.935C19.176,11.009,17.759,10.03,16.25,9.028z
			 M13.293,13.561c-0.808,0.548-1.623,1.081-2.446,1.602c-0.822,0.519-1.624,0.998-2.404,1.435c-0.78,0.438-1.486,0.809-2.122,1.108
			V6.256c0.606,0.301,1.299,0.67,2.078,1.108c0.78,0.438,1.582,0.91,2.404,1.416c0.822,0.507,1.646,1.033,2.469,1.581
			c0.822,0.546,1.596,1.08,2.316,1.601C14.868,12.479,14.102,13.015,13.293,13.561z"/>
	</g>
</g>
</svg>
