<?xml version="1.0" encoding="utf-8"?>
<!-- Generator: Adobe Illustrator 14.0.0, SVG Export Plug-In . SVG Version: 6.00 Build 43363)  -->
<!DOCTYPE svg PUBLIC "-//W3C//DTD SVG 1.1//EN" "http://www.w3.org/Graphics/SVG/1.1/DTD/svg11.dtd">
<svg version="1.1" id="Layer_1" xmlns="http://www.w3.org/2000/svg" xmlns:xlink="http://www.w3.org/1999/xlink" x="0px" y="0px"
	 width="22px" height="22px" viewBox="0 0 22 22" enable-background="new 0 0 22 22" xml:space="preserve">
<path fill="#FFFFFF" d="M11,2c-4.971,0-9,4.029-9,9s4.029,9,9,9s9-4.029,9-9S15.971,2,11,2z M11,4c3.866,0,7,3.134,7,7s-3.134,7-7,7
	s-7-3.134-7-7S7.134,4,11,4z"/>
<path fill="#FFFFFF" d="M9.026,14.247c0.341-0.171,0.722-0.381,1.142-0.629c0.42-0.249,0.851-0.521,1.293-0.815
	c0.443-0.296,0.882-0.599,1.316-0.909s0.847-0.613,1.235-0.908c-0.389-0.295-0.804-0.599-1.247-0.909
	c-0.442-0.311-0.885-0.609-1.328-0.896c-0.442-0.288-0.874-0.556-1.293-0.804c-0.42-0.249-0.792-0.459-1.118-0.63V14.247z"/>
</svg>
