<?xml version="1.0" encoding="utf-8"?>
<!-- Generator: Adobe Illustrator 15.0.0, SVG Export Plug-In . SVG Version: 6.00 Build 0)  -->
<!DOCTYPE svg PUBLIC "-//W3C//DTD SVG 1.1//EN" "http://www.w3.org/Graphics/SVG/1.1/DTD/svg11.dtd">
<svg version="1.1" id="Layer_1" xmlns="http://www.w3.org/2000/svg" xmlns:xlink="http://www.w3.org/1999/xlink" x="0px" y="0px"
	 width="14px" height="21px" viewBox="0 0 14 21" enable-background="new 0 0 14 21" xml:space="preserve">
<g>
	<g>
		<path fill="#FFFFFF" d="M13.998,10.5c0.001,0.001,0.001,0.002,0.002,0.002V10.5C13.999,10.5,13.999,10.5,13.998,10.5z M8.139,5.49
			C7.364,4.623,6.623,3.718,5.913,2.774S4.576,0.905,4.034,0H0c0.543,0.905,1.208,1.882,1.995,2.929
			c0.787,1.048,1.622,2.082,2.502,3.104C5.38,7.055,6.275,8.005,7.185,8.885C7.812,9.493,8.417,10.028,9,10.5
			c-0.583,0.473-1.188,1.009-1.815,1.616c-0.909,0.88-1.805,1.83-2.688,2.852c-0.88,1.022-1.715,2.057-2.502,3.104
			C1.208,19.12,0.543,20.095,0,21h4.034c0.542-0.905,1.168-1.829,1.878-2.773s1.451-1.85,2.226-2.717
			c0.775-0.866,1.562-1.661,2.361-2.385c0.688-0.621,2.531-1.949,3.498-2.625c-0.967-0.675-2.81-2.002-3.498-2.624
			C9.701,7.152,8.914,6.357,8.139,5.49z"/>
	</g>
</g>
</svg>
