<?xml version="1.0" encoding="utf-8"?>
<!-- Generator: Adobe Illustrator 14.0.0, SVG Export Plug-In . SVG Version: 6.00 Build 43363)  -->
<!DOCTYPE svg PUBLIC "-//W3C//DTD SVG 1.1//EN" "http://www.w3.org/Graphics/SVG/1.1/DTD/svg11.dtd">
<svg version="1.1" id="Layer_1" xmlns="http://www.w3.org/2000/svg" xmlns:xlink="http://www.w3.org/1999/xlink" x="0px" y="0px"
	 width="22px" height="22px" viewBox="0 0 22 22" enable-background="new 0 0 22 22" xml:space="preserve">
<g>
	<path fill="#FFFFFF" d="M11,4.162l2.204,4.225l0.239,0.458l0.511,0.07l4.811,0.662l-3.442,3.175l-0.404,0.373l0.098,0.541
		l0.825,4.551l-4.396-2.188L11,15.808l-0.445,0.222l-4.396,2.188l0.825-4.551l0.098-0.541l-0.404-0.373L3.236,9.577l4.811-0.662
		l0.512-0.07l0.239-0.458L11,4.162 M11,2L7.91,7.925L1,8.875l5,4.612L4.82,20L11,16.925L17.181,20L16,13.487l5-4.612l-6.909-0.95
		L11,2L11,2z"/>
</g>
</svg>
