<?xml version="1.0" encoding="utf-8"?>
<!-- Generator: Adobe Illustrator 15.0.0, SVG Export Plug-In . SVG Version: 6.00 Build 0)  -->
<!DOCTYPE svg PUBLIC "-//W3C//DTD SVG 1.1//EN" "http://www.w3.org/Graphics/SVG/1.1/DTD/svg11.dtd">
<svg version="1.1" id="Layer_1" xmlns="http://www.w3.org/2000/svg" xmlns:xlink="http://www.w3.org/1999/xlink" x="0px" y="0px"
	 width="14px" height="14px" viewBox="0 0 14 14" enable-background="new 0 0 14 14" xml:space="preserve">
<path fill="#DC4A26" d="M7,1.879C6.961,1.473,6.427,0.227,1,1.5c0,3.222,0,7.449,0,11C7.009,10.945,7,13,7,13s-0.009-2.055,6-0.5
	c0-3.551,0-7.778,0-11C7.574,0.227,7.039,1.473,7,1.879z M5,9H2V8h3V9z M5,7H2V6h3V7z M5,5H2V4h3V5z M7.5,12h-1V2h1V12z M12,9H9V8h3
	V9z M12,7H9V6h3V7z M12,5H9V4h3V5z"/>
</svg>
