<?xml version="1.0" encoding="UTF-8" standalone="no"?>
<!-- Generator: Adobe Illustrator 15.0.0, SVG Export Plug-In . SVG Version: 6.00 Build 0)  -->

<svg
   xmlns:dc="http://purl.org/dc/elements/1.1/"
   xmlns:cc="http://creativecommons.org/ns#"
   xmlns:rdf="http://www.w3.org/1999/02/22-rdf-syntax-ns#"
   xmlns:svg="http://www.w3.org/2000/svg"
   xmlns="http://www.w3.org/2000/svg"
   xmlns:sodipodi="http://sodipodi.sourceforge.net/DTD/sodipodi-0.dtd"
   xmlns:inkscape="http://www.inkscape.org/namespaces/inkscape"
   version="1.1"
   id="Layer_1"
   x="0px"
   y="0px"
   width="14px"
   height="14px"
   viewBox="0 0 14 14"
   enable-background="new 0 0 14 14"
   xml:space="preserve"
   inkscape:version="0.48.3.1 r9886"
   sodipodi:docname="emblem_video.svg"><metadata
   id="metadata13"><rdf:RDF><cc:Work
       rdf:about=""><dc:format>image/svg+xml</dc:format><dc:type
         rdf:resource="http://purl.org/dc/dcmitype/StillImage" /></cc:Work></rdf:RDF></metadata><defs
   id="defs11" /><sodipodi:namedview
   pagecolor="#ffffff"
   bordercolor="#666666"
   borderopacity="1"
   objecttolerance="10"
   gridtolerance="10"
   guidetolerance="10"
   inkscape:pageopacity="0"
   inkscape:pageshadow="2"
   inkscape:window-width="1215"
   inkscape:window-height="776"
   id="namedview9"
   showgrid="false"
   inkscape:zoom="16.857143"
   inkscape:cx="7"
   inkscape:cy="7"
   inkscape:window-x="65"
   inkscape:window-y="24"
   inkscape:window-maximized="1"
   inkscape:current-layer="Layer_1" />
<g
   id="g3"
   transform="translate(0,0.5)">
	<g
   id="g5">
		<path
   d="M 12.301,2.5 H 1.7 C 1.315,2.5 1,2.813 1,3.196 v 7.608 C 1,11.188 1.315,11.5 1.7,11.5 H 12.301 C 12.686,11.5 13,11.188 13,10.804 V 3.196 C 13,2.813 12.686,2.5 12.301,2.5 z M 2.989,10.455 H 1.994 V 9.498 H 2.99 v 0.957 z m 0,-1.965 H 1.994 V 7.5 H 2.99 v 0.99 z m 0,-1.996 H 1.994 V 5.535 H 2.99 v 0.959 z m 0,-1.998 H 1.994 V 3.538 H 2.99 V 4.496 z M 8.006,7.841 C 7.659,8.126 7.308,8.404 6.954,8.677 6.6,8.947 6.255,9.197 5.92,9.426 5.585,9.655 5.28,9.848 5.007,10.005 V 4.026 c 0.261,0.158 0.559,0.35 0.894,0.578 0.335,0.229 0.68,0.476 1.034,0.74 0.354,0.265 0.708,0.54 1.061,0.825 0.355,0.286 0.687,0.565 0.998,0.836 -0.31,0.271 -0.64,0.55 -0.988,0.836 z m 3.986,2.614 H 10.996 V 9.498 h 0.996 v 0.957 z m 0,-1.965 H 10.996 V 7.5 h 0.996 v 0.99 z m 0,-1.996 H 10.996 V 5.535 h 0.996 v 0.959 z m 0,-1.998 H 10.996 V 3.538 h 0.996 v 0.958 z"
   id="path7"
   inkscape:connector-curvature="0"
   style="fill:#dc4a26" />
	</g>
</g>
</svg>