<?xml version="1.0" encoding="utf-8"?>
<!-- Generator: Adobe Illustrator 15.0.0, SVG Export Plug-In . SVG Version: 6.00 Build 0)  -->
<!DOCTYPE svg PUBLIC "-//W3C//DTD SVG 1.1//EN" "http://www.w3.org/Graphics/SVG/1.1/DTD/svg11.dtd">
<svg version="1.1" id="Layer_1" xmlns="http://www.w3.org/2000/svg" xmlns:xlink="http://www.w3.org/1999/xlink" x="0px" y="0px"
	 width="22px" height="22px" viewBox="0 0 22 22" enable-background="new 0 0 22 22" xml:space="preserve">
<g>
	<g>
		<path fill="#FFFFFF" d="M11,2c-4.971,0-9,4.03-9,9s4.029,9,9,9s9-4.03,9-9S15.971,2,11,2z M12.007,17.01h-2.004V9.001h2.004V17.01
			z M11.877,6.903c-0.245,0.224-0.534,0.336-0.868,0.336c-0.346,0-0.64-0.112-0.885-0.336C9.88,6.68,9.757,6.378,9.757,5.998
			c0-0.392,0.123-0.699,0.367-0.924c0.245-0.223,0.539-0.335,0.885-0.335c0.334,0,0.623,0.112,0.868,0.335
			c0.244,0.225,0.366,0.532,0.366,0.924C12.243,6.378,12.121,6.68,11.877,6.903z"/>
	</g>
</g>
</svg>
