<?xml version="1.0" encoding="utf-8"?>
<!-- Generator: Adobe Illustrator 14.0.0, SVG Export Plug-In . SVG Version: 6.00 Build 43363)  -->
<!DOCTYPE svg PUBLIC "-//W3C//DTD SVG 1.1//EN" "http://www.w3.org/Graphics/SVG/1.1/DTD/svg11.dtd">
<svg version="1.1" id="Layer_1" xmlns="http://www.w3.org/2000/svg" xmlns:xlink="http://www.w3.org/1999/xlink" x="0px" y="0px"
	 width="24px" height="24px" viewBox="0 0 24 24" enable-background="new 0 0 24 24" xml:space="preserve">
<g>
	<g>
		<path fill="#FFFFFF" d="M17.914,18.077c-1.999-0.991-2.911-2.703-2.911-3.514c0-0.544,0.363-1.382,0.713-1.788
			c0.341-0.399,0.849-0.598,1.091-1.041c0.393-0.725,0.602-2.17,0.48-2.807c-0.088-0.452-0.48-0.497-0.48-0.904
			c0-0.362,0.086-0.95,0.086-1.946c0-1.402-0.539-2.153-1.265-2.805c-0.656-0.589-1.965-1.223-3.625-1.223
			c-0.353,0-0.732,0.031-1.048,0.091c-0.72,0.135-1.206,0.473-1.452,0.738l-0.01-0.005L9.436,2.946
			C9.434,2.949,9.43,2.952,9.427,2.955c-0.306,0.046-0.8,0.116-1.223,0.452C7.636,3.86,7.113,4.675,7.113,6.077
			c0,0.996,0.087,1.584,0.087,1.946c0,0.407-0.393,0.452-0.48,0.904C6.597,9.564,6.807,11.01,7.2,11.734
			c0.241,0.443,0.75,0.642,1.091,1.041c0.35,0.406,0.713,1.244,0.713,1.788c0,0.811-0.919,2.522-2.919,3.514
			C3.346,19.435,2,20.059,2,21.95h20C22,20.059,20.655,19.435,17.914,18.077z M9.788,2.291L9.59,2.128
			C9.486,2.253,9.414,2.393,9.379,2.534C9.247,2.487,9.095,2.466,8.921,2.466v0.256c0.205,0,0.368,0.036,0.499,0.11l0.073,0.042
			l0.119-0.152C9.612,2.579,9.674,2.427,9.788,2.291z"/>
	</g>
</g>
</svg>
