<?xml version="1.0" encoding="UTF-8" standalone="no"?>
<!-- Created with Inkscape (http://www.inkscape.org/) -->

<svg
   xmlns:dc="http://purl.org/dc/elements/1.1/"
   xmlns:cc="http://creativecommons.org/ns#"
   xmlns:rdf="http://www.w3.org/1999/02/22-rdf-syntax-ns#"
   xmlns:svg="http://www.w3.org/2000/svg"
   xmlns="http://www.w3.org/2000/svg"
   xmlns:sodipodi="http://sodipodi.sourceforge.net/DTD/sodipodi-0.dtd"
   xmlns:inkscape="http://www.inkscape.org/namespaces/inkscape"
   width="24"
   height="24"
   id="svg3289"
   version="1.1"
   inkscape:version="0.48.3.1 r9886"
   sodipodi:docname="lens-nav-gwibber.svg">
  <defs
     id="defs3291" />
  <sodipodi:namedview
     id="base"
     pagecolor="#ffffff"
     bordercolor="#666666"
     borderopacity="1.0"
     inkscape:pageopacity="0.0"
     inkscape:pageshadow="2"
     inkscape:zoom="24.286129"
     inkscape:cx="5.2087349"
     inkscape:cy="11.142163"
     inkscape:document-units="px"
     inkscape:current-layer="g4451"
     showgrid="true"
     inkscape:window-width="1920"
     inkscape:window-height="1029"
     inkscape:window-x="0"
     inkscape:window-y="24"
     inkscape:window-maximized="1">
    <inkscape:grid
       type="xygrid"
       id="grid3061"
       empspacing="8"
       visible="true"
       enabled="true"
       snapvisiblegridlinesonly="true" />
  </sodipodi:namedview>
  <metadata
     id="metadata3294">
    <rdf:RDF>
      <cc:Work
         rdf:about="">
        <dc:format>image/svg+xml</dc:format>
        <dc:type
           rdf:resource="http://purl.org/dc/dcmitype/StillImage" />
        <dc:title />
      </cc:Work>
    </rdf:RDF>
  </metadata>
  <g
     inkscape:label="Layer 1"
     inkscape:groupmode="layer"
     id="layer1"
     transform="translate(0,-1028.3622)">
    <g
       style="display:inline"
       transform="translate(-789,604.3622)"
       id="g4451">
      <path
         style="color:#000000;fill:#ffffff;fill-opacity:1;fill-rule:nonzero;stroke:none;stroke-width:1;marker:none;visibility:visible;display:inline;overflow:visible;enable-background:accumulate"
         d="M 7.3125 4 C 3.7714844 4.0683594 3 4.625 3 9 L 3 12 C 3 17 4 17 9 17 L 15 17 C 20 17 21 17 21 12 L 21 9 C 21 4 20 4 15 4 L 9 4 C 8.375 4 7.8183594 3.9902344 7.3125 4 z M 6 7 L 18 7 L 18 8 L 6 8 L 6 7 z M 6 9 L 18 9 L 18 10 L 6 10 L 6 9 z M 6 11 L 14 11 L 14 12 L 6 12 L 6 11 z "
         transform="translate(789,424)"
         id="rect2992" />
      <path
         style="fill:#ffffff;stroke:none"
         d="m 796,440 0,5 5,-5 z"
         id="path3763"
         inkscape:connector-curvature="0"
         sodipodi:nodetypes="cccc" />
    </g>
  </g>
</svg>
