<?xml version="1.0" encoding="utf-8"?>
<!-- Generator: Adobe Illustrator 15.0.0, SVG Export Plug-In . SVG Version: 6.00 Build 0)  -->
<!DOCTYPE svg PUBLIC "-//W3C//DTD SVG 1.1//EN" "http://www.w3.org/Graphics/SVG/1.1/DTD/svg11.dtd">
<svg version="1.1" id="Layer_1" xmlns="http://www.w3.org/2000/svg" xmlns:xlink="http://www.w3.org/1999/xlink" x="0px" y="0px"
	 width="24px" height="24px" viewBox="0 0 24 24" enable-background="new 0 0 24 24" xml:space="preserve">
<path fill="#FFFFFF" d="M12.635,13.608c-0.849,0.836-2.011,1.265-3.272,1.204l0,0c-0.413-0.02-0.826-0.091-1.229-0.215
	c-0.368-0.112-0.665-0.404-0.778-0.769c-0.509-1.623-0.123-3.323,1.009-4.437c0.85-0.836,2.011-1.264,3.272-1.205
	c0.411,0.02,0.826,0.093,1.228,0.215c0.368,0.113,0.665,0.405,0.778,0.769C14.153,10.794,13.766,12.492,12.635,13.608z M15.5,7
	C15.224,7,15,6.775,15,6.499C15,6.224,15.224,6,15.5,6S16,6.224,16,6.499C16,6.775,15.776,7,15.5,7z M19.986,5.999 M20,6
	c0.552,0,1-0.447,1-1c0-0.552-0.449-1-1-1h-9c-4.418,0-8,3.582-8,8c0,4.418,3.582,8,8,8c4.417,0,8-3.576,8-7.994V7
	c0-0.01,0.001-0.019,0.001-0.028C19.001,6.436,19.448,6,20,6"/>
</svg>
