<?xml version="1.0" encoding="utf-8"?>
<!-- Generator: Adobe Illustrator 15.0.0, SVG Export Plug-In . SVG Version: 6.00 Build 0)  -->
<!DOCTYPE svg PUBLIC "-//W3C//DTD SVG 1.1//EN" "http://www.w3.org/Graphics/SVG/1.1/DTD/svg11.dtd">
<svg version="1.1" id="Layer_1" xmlns="http://www.w3.org/2000/svg" xmlns:xlink="http://www.w3.org/1999/xlink" x="0px" y="0px"
	 width="24px" height="24px" viewBox="0 0 24 24" enable-background="new 0 0 24 24" xml:space="preserve">
<path fill="#FFFFFF" d="M20,4.5H4c-0.532,0-1,0.467-1,1v13c0,0.533,0.468,1,1,1h16c0.533,0,1-0.467,1-1v-13
	C21,4.967,20.533,4.5,20,4.5z M5.5,18.5h-1v-1h1V18.5z M5.5,16.5h-1v-1h1V16.5z M5.5,14.5h-1v-1h1V14.5z M5.5,12.5h-1v-1h1V12.5z
	 M5.5,10.5h-1v-1h1V10.5z M5.5,8.5h-1v-1h1V8.5z M5.5,6.5h-1v-1h1V6.5z M14.267,13.241c-0.61,0.431-1.226,0.85-1.849,1.259
	c-0.621,0.408-1.226,0.785-1.815,1.129C10.015,15.973,9.479,16.263,9,16.5v-9c0.458,0.236,0.981,0.527,1.57,0.871
	c0.588,0.343,1.194,0.715,1.816,1.113c0.621,0.398,1.243,0.812,1.864,1.242c0.622,0.429,1.205,0.849,1.75,1.257
	C15.455,12.392,14.877,12.812,14.267,13.241z M19.5,18.5h-1v-1h1V18.5z M19.5,16.5h-1v-1h1V16.5z M19.5,14.5h-1v-1h1V14.5z
	 M19.5,12.5h-1v-1h1V12.5z M19.5,10.5h-1v-1h1V10.5z M19.5,8.5h-1v-1h1V8.5z M19.5,6.5h-1v-1h1V6.5z"/>
</svg>
