<?xml version="1.0" encoding="utf-8"?>
<!-- Generator: Adobe Illustrator 15.0.0, SVG Export Plug-In . SVG Version: 6.00 Build 0)  -->
<!DOCTYPE svg PUBLIC "-//W3C//DTD SVG 1.1//EN" "http://www.w3.org/Graphics/SVG/1.1/DTD/svg11.dtd">
<svg version="1.1" id="Layer_1" xmlns="http://www.w3.org/2000/svg" xmlns:xlink="http://www.w3.org/1999/xlink" x="0px" y="0px"
	 width="24px" height="24px" viewBox="0 0 24 24" enable-background="new 0 0 24 24" xml:space="preserve">
<path fill="#FFFFFF" d="M14,8v12c0,0.55-0.45,1-1,1h-2c-0.55,0-1-0.45-1-1V8H14z"/>
<path fill="#FFFFFF" d="M8,11H6v-1h2V8H6V7h2V4c0-0.55-0.45-1-1-1H5.001c-0.55,0-1,0.45-1,1L4,20c0,0.55,0.45,1,1,1h2
	c0.55,0,1-0.45,1-1v-3H6v-1h2v-2H6v-1h2V11z"/>
<path fill="#FFFFFF" d="M8,8L8,8V7l0,0V8z"/>
<path fill="#FFFFFF" d="M18.366,3v1.542C18.602,4.681,18.8,4.925,18.8,5.217c0,0.441-0.358,0.799-0.8,0.799s-0.8-0.358-0.8-0.799
	c0-0.292,0.198-0.537,0.433-0.675V3C17.16,3.578,16,5.26,16,6.005C16,7.106,17.116,8,18,8s2-0.894,2-1.995
	C20,5.26,18.84,3.578,18.366,3z"/>
<path fill="#FFFFFF" d="M20,9v11c0,0.55-0.45,1-1,1h-2c-0.55,0-1-0.45-1-1V9H20z"/>
<path fill="#FFFFFF" d="M12.552,3.991c0.191,0.349,0.378,0.7,0.56,1.056c0.182,0.355,0.349,0.701,0.502,1.038
	C13.766,6.42,13.895,6.726,14,7h-4c0.105-0.262,0.234-0.561,0.387-0.897c0.153-0.336,0.318-0.682,0.495-1.038
	c0.177-0.354,0.36-0.71,0.552-1.065c0.191-0.355,0.377-0.688,0.559-1C12.175,3.312,12.36,3.642,12.552,3.991z"/>
</svg>
