<?xml version="1.0" encoding="utf-8"?>
<!-- Generator: Adobe Illustrator 15.0.0, SVG Export Plug-In . SVG Version: 6.00 Build 0)  -->
<!DOCTYPE svg PUBLIC "-//W3C//DTD SVG 1.1//EN" "http://www.w3.org/Graphics/SVG/1.1/DTD/svg11.dtd">
<svg version="1.1" id="Layer_1" xmlns="http://www.w3.org/2000/svg" xmlns:xlink="http://www.w3.org/1999/xlink" x="0px" y="0px"
	 width="14px" height="21px" viewBox="0 0 14 21" enable-background="new 0 0 14 21" xml:space="preserve">
<g>
	<g>
		<path fill="#FFFFFF" d="M633,400.501c0.001,0,0.001-0.001,0.002-0.001c-0.001,0-0.001-0.001-0.002-0.001V400.501z
			 M642.503,404.967c-0.883-1.021-1.778-1.972-2.687-2.852c-0.629-0.607-1.233-1.143-1.816-1.615
			c0.583-0.473,1.188-1.008,1.816-1.615c0.908-0.88,1.804-1.83,2.687-2.852c0.882-1.022,1.716-2.057,2.503-3.104
			c0.786-1.049,1.451-2.025,1.994-2.93h-4.034c-0.542,0.904-1.168,1.829-1.878,2.773c-0.711,0.944-1.452,1.85-2.227,2.717
			c-0.775,0.866-1.562,1.661-2.362,2.386c-0.687,0.622-2.53,1.948-3.497,2.624c0.967,0.676,2.811,2.002,3.497,2.624
			c0.8,0.724,1.587,1.52,2.362,2.387c0.774,0.866,1.516,1.771,2.227,2.716c0.71,0.943,1.336,1.868,1.878,2.773H647
			c-0.543-0.905-1.208-1.882-1.994-2.929C644.219,407.023,643.385,405.989,642.503,404.967z"/>
	</g>
</g>
<g>
	<g>
		<path fill="#FFFFFF" d="M0,10.501c0.001,0,0.001-0.001,0.002-0.001c-0.001,0-0.001-0.001-0.002-0.001V10.501z M9.503,14.967
			c-0.883-1.021-1.778-1.972-2.687-2.852C6.188,11.508,5.583,10.973,5,10.5c0.583-0.473,1.188-1.008,1.816-1.615
			c0.909-0.88,1.804-1.83,2.687-2.852c0.882-1.022,1.716-2.056,2.503-3.104C12.792,1.881,13.457,0.905,14,0H9.966
			c-0.542,0.905-1.168,1.83-1.878,2.774C7.377,3.718,6.636,4.623,5.861,5.49C5.086,6.356,4.299,7.151,3.499,7.876
			C2.812,8.498,0.969,9.824,0.002,10.5c0.967,0.676,2.81,2.002,3.497,2.624c0.8,0.724,1.587,1.52,2.362,2.387
			c0.774,0.866,1.516,1.771,2.227,2.716C8.798,19.17,9.424,20.095,9.966,21H14c-0.543-0.905-1.208-1.882-1.994-2.929
			C11.219,17.023,10.385,15.989,9.503,14.967z"/>
	</g>
</g>
</svg>
